# xmcd
# 
# Track frame offsets:
#     180
#     14080
#     22052
#     40605
#     51755
#     62802
# 
# Disc length: 1144
# 
# Revision: 1
# Processed by: cddbd v1.5.2PL0 Copyright (c) Steve Scherf et al.
# Submitted via: BonkEnc v1.0.5
# 
DISCID=4c047606
DTITLE=Dublin City Ramblers - You'll Never Beat the Irish
DYEAR=0
DGENRE=
TTITLE0=You'll Never Beat the Irish
TTITLE1=Remembering Luke
TTITLE2=Luke Kelly's Land
TTITLE3=The Ram-Dee-Da
TTITLE4=My Dublin
TTITLE5=Rare Ould Times
EXTD=
EXTT0=
EXTT1=
EXTT2=
EXTT3=
EXTT4=
EXTT5=
PLAYORDER=
